<svg xmlns="http://www.w3.org/2000/svg" viewBox="0 0 757.66 134.06"><g id="레이어_2" data-name="레이어 2"><g id="레이어_1-2" data-name="레이어 1"><path d="M564.68,88.64q0,9.75,0,19.5c0,3.07-.54,6-4.33,6s-5-2.76-5.05-6.09c-.07-12.49,0-25-.07-37.48,0-6.34-3-10.84-8.76-13.35-5.49-2.4-10.77-1.63-15.54,2-3.86,3-5.38,7-5.38,11.81q0,17.25,0,34.49a25.27,25.27,0,0,1-.13,4c-.42,2.72-1.81,4.85-4.82,4.76s-4.38-2.17-4.42-5c-.08-5.5,0-11-.06-16.49,0-7,.09-14,0-21-.16-9.4-6.79-16-15.66-15.82-8.54.19-14.41,7-14.28,16.54.16,12,.51,24-.25,36-.19,3.17-1,5.85-4.69,5.73-3.53-.11-4.77-2.73-4.78-5.87,0-13-.4-26,.17-39,.44-10,5.84-17.34,15.16-21.12s18.15-2.11,25.65,4.41c2.86,2.48,4.19,2.16,6.87-.11,8.12-6.91,17.47-8.15,27-3.57,9.08,4.35,13.51,12,13.38,22.16C564.62,77,564.68,82.81,564.68,88.64Z"/><path d="M748.22,54.29c0-8.23-.11-15.37,0-22.5.09-4.48,2.77-6.94,6-5.87s3.35,3.76,3.35,6.53q0,26,0,52c0,7,0,14,0,21,0,3.25.75,7-3.64,8.28-2.83.82-4.44-.86-6.63-6.71-.71.5-1.36,1-2,1.42-14.45,10.74-31,8.13-41.42-6.53-10.71-15-8.11-37.9,5.56-49,11.13-9.07,23.21-9.42,34.85-1C745.26,52.45,746.24,53,748.22,54.29Zm0,25.21A24.22,24.22,0,0,0,747,71.72c-2.82-9.21-9.84-15.47-17.8-15.91-9-.49-16,3.94-19.92,12.87a28,28,0,0,0,.81,25c7.17,13.85,23.61,15.58,32.72,3.64C746.58,92.42,748.14,86.74,748.24,79.5Z"/><path d="M126.69,73.36c0,11.49-.11,23,.07,34.47.07,4.4-1.4,6.82-6,7.56-7.71,1.25-15.37,2.87-23.07,4.28-2.75.5-5.65.61-6.44-2.87-.84-3.7,1.68-5,4.8-5.56,6.05-1.13,12.07-2.43,18.15-3.4,2.79-.45,4.07-1.55,4.06-4.5q-.09-31.47,0-62.95a5.25,5.25,0,0,0-3.24-5.1C103,29,91.14,22,78.76,16.34c-8.43-3.88-17.91-5-27-7.19-2.72-.65-4.32,1.45-5.93,3Q32.07,25.94,18.39,39.81c-2.39,2.44-4.92,4.88-8,1.8s-.52-5.72,1.83-8.08c10-10,20.13-19.91,29.92-30.12C45.53-.08,48.77-.42,53.33.33,78.4,4.43,99.67,17.4,121.57,28.92c3.56,1.87,5.21,4.83,5.16,9C126.62,49.71,126.69,61.53,126.69,73.36Z"/><path d="M259,45.44c10.48.07,17.54,3.51,23.12,9.73,12.55,14,12.16,36.53-.68,50.21-9.22,9.84-23.32,12-34.63,5s-16.3-18.07-16.09-30.91c.21-13.22,5.52-24.25,17.76-30.93C252.34,46.44,256.48,45.34,259,45.44ZM240.48,79.86A26,26,0,0,0,246,97.29a18.65,18.65,0,0,0,28.79,1.25c8.84-9.64,9-26.95.39-36.74-7.8-8.85-19.43-9.19-27.58-.77A24.94,24.94,0,0,0,240.48,79.86Z"/><path d="M668.36,88.35c0-6,.11-12,0-18-.2-8.3-6.89-14.23-16-14.39-9.34-.17-16.59,5.71-16.79,14.13-.27,11.32-.11,22.65-.13,34,0,1.16,0,2.33,0,3.5-.22,3.32-.78,6.78-5.06,6.61s-4.43-3.63-4.42-7c0-11.32.22-22.65,0-34-.35-14.6,9.32-25.87,23.3-26.66,16.41-.93,28.47,8.7,29.11,24,.52,12.3.17,24.65.1,37,0,3.34-.8,6.74-5,6.64s-4.82-3.51-4.86-6.84c-.09-6.33,0-12.66,0-19Z"/><path d="M35.51,91.94c0,9,.24,18-.09,27-.18,4.81,1.53,5.79,5.82,4.66,4.82-1.27,9.72-2.28,14.62-3.21,3.12-.59,4.52-2.07,4.44-5.4-.16-7.48,0-15,0-22.46,0-3.23.46-6.46,4.55-6.3,3.88.15,3.85,3.46,3.86,6.37,0,9.48-.09,19,0,28.46.06,3.85-1.59,5.81-5.28,6.56-9.78,2-19.51,4.2-29.29,6.17-5.17,1-7.39-.48-7.55-5.75-.26-9-.36-18,.09-26.95.58-11.65.1-23.29.35-34.93.05-2.8-1.34-4.19-3.83-5.08-5.33-1.9-10.6-4-15.89-6C4.35,54,1.47,52.55,3,48.65c1.42-3.68,4.36-2.8,7.15-1.73,6.22,2.39,12.42,4.81,18.65,7.13,4.64,1.73,6.8,5,6.76,9.93C35.46,73.3,35.51,82.62,35.51,91.94Z"/><path d="M311.17,72.41c0-6.49,0-13,0-19.47,0-3.13.93-5.91,4.52-6,3.93-.11,4.88,2.8,4.89,6.13q0,17.73,0,35.46c0,6.25,1.81,11.61,7.82,14.47,6.57,3.13,13.18,3.34,19.42-1a14.11,14.11,0,0,0,6.28-12.36c0-11.32,0-22.64,0-34a37.9,37.9,0,0,1,.09-4c.29-2.81,1.71-4.85,4.7-4.81s4.49,2.16,4.55,5c.15,7,.11,14,.11,21,0,6.32.22,12.66-.08,19-.63,13.23-12.36,23.29-26.58,23.07s-25.49-10.59-25.74-24C311.07,84.73,311.17,78.57,311.17,72.41Z"/><path d="M192.9,88.29l15.31-32.92c1-2.11,1.92-4.25,3-6.32,1.4-2.69,3.57-4.14,6.54-2.7s3.2,4.06,2,6.81q-5.67,12.51-11.46,25c-7.9,17.07-15.86,34.11-23.74,51.18-1.46,3.17-3.38,5.83-7.17,4.31-4.05-1.63-3.06-4.89-1.64-8,3.27-7.11,6.4-14.29,9.79-21.33a10,10,0,0,0-.08-9.45C179.09,81.63,173,68.29,166.92,55a15,15,0,0,1-1.51-4.19,4.19,4.19,0,0,1,3.26-4.93c2.93-.82,4.79.83,6,3.29,3.7,7.82,7.33,15.68,11,23.52C187.91,77.59,190.2,82.51,192.9,88.29Z"/><path d="M391,47.35c.55.11,1.55,0,1.8.39,3.08,4.7,6.76,1.95,10.33,1a12.77,12.77,0,0,1,3-.23c2.79-.09,5,.78,5.37,3.92.3,2.77-1.36,4.21-3.84,5.06-9.55,3.29-11.9,6.6-11.93,16.76,0,9.82,0,19.64,0,29.46,0,1.33,0,2.66-.08,4-.22,3-1.57,5.25-4.87,5.15-3-.1-4.36-2.25-4.45-5-.13-4.16-.08-8.32-.08-12.48q0-20.46,0-40.94C386.22,51,386.7,48,391,47.35Z"/><path d="M.13,92.05C.13,84.22,0,76.39.2,68.57c.09-3.48-1.71-9,4-9,6.17,0,4.23,5.7,4.28,9.3.18,14.65.22,29.3,0,44-.08,4.4,1.37,6.87,5.61,8a28.3,28.3,0,0,1,6,2.48c2.16,1.15,3.12,3.11,2.18,5.47A3.86,3.86,0,0,1,16.89,131c-4.69-1.72-9.32-3.6-13.9-5.57C.21,124.21.13,121.59.13,119Q.15,105.54.13,92.05Z"/><path d="M589.35,80.83c0-8.31,0-16.61,0-24.92a20.27,20.27,0,0,1,.53-4.92,4.25,4.25,0,0,1,4.4-3.35A4.07,4.07,0,0,1,598.65,51a30,30,0,0,1,.69,6.41q.09,23.91,0,47.84c0,3.74.52,8.17-4.81,9-3.56.52-5.17-2.45-5.18-9Q589.33,93,589.35,80.83Z"/><path d="M99.47,86.73c0,4.49,0,9,0,13.47,0,3.13-.35,6.52-4.34,6.63-4.4.12-4.67-3.55-4.73-6.77-.13-6.32-.16-12.65,0-19,.08-3.86-.92-5.56-5.23-4.45-6,1.53-12,2.52-18,3.82-2.93.63-5.61.34-6.4-2.93s1.64-4.88,4.43-5.48c9.26-2,18.55-3.86,27.84-5.74,4.38-.88,6.27,1.49,6.41,5.44.18,5,.05,10,.05,15Z"/><path d="M40,55a4,4,0,0,1-3.71-2.1c-1.1-2.1-.29-3.94,1.16-5.46,4-4.2,8.15-8.34,12.26-12.47,4.94-5,9.9-9.89,14.85-14.85,2.19-2.19,4.68-3.77,7.28-1,2.32,2.5.93,4.94-1.12,7L44.23,52.69C43,53.89,41.81,55,40,55Z"/><path d="M440.05,82.13c-3.81,0-7.63.06-11.44,0-3.05-.06-5.22-1.46-5.19-4.75,0-3.1,2.32-4.37,5-4.41q11.94-.21,23.88,0c3,.06,5.2,1.76,5,5-.22,3-2.5,4.11-5.28,4.14C448,82.17,444,82.14,440.05,82.13Z"/><path d="M600.68,28.12c-.16,3.89-2.3,6-6.22,6.24a6.28,6.28,0,0,1-6.7-6.51c.24-4,2.87-6,6.61-6.05C598.31,21.73,600.47,24,600.68,28.12Z"/></g></g></svg>